<svg width="182" height="201" viewBox="0 0 182 201" fill="none" xmlns="http://www.w3.org/2000/svg">
<path fill-rule="evenodd" clip-rule="evenodd" d="M181.18 135.753V64.5467C181.18 54.206 175.665 44.6522 166.71 39.4796L105.059 3.87777C96.1069 -1.29259 85.0734 -1.29259 76.121 3.87777L14.4702 39.4796C5.51785 44.6522 0 54.206 0 64.5467V135.753C0 146.093 5.51785 155.649 14.4702 160.82L76.121 196.422C85.0734 201.594 96.1069 201.594 105.059 196.422L166.71 160.82C175.665 155.649 181.18 146.093 181.18 135.753Z" fill="#B57AD2"/>
<path d="M84.8095 134.667C91.799 134.667 97.6952 130.079 99.7062 123.753C101.151 124.495 102.674 125.022 104.255 125.276V125.295L112.143 150.286L98.4762 148.333L88.7143 158.095L84.8095 145.405L81.3928 134.296V134.276C82.4862 134.53 83.6381 134.667 84.8095 134.667Z" fill="white"/>
<path d="M71.1429 148.333L57.4762 150.286L65.3638 125.295V125.276C66.9452 125.022 68.4681 124.495 69.9129 123.753C71.5919 129.024 75.9457 133.085 81.3929 134.276V134.296L84.8095 145.405L80.9048 158.095L71.1429 148.333Z" fill="white"/>
<path d="M112.924 101.476C109.937 96.6929 108.238 91.07 108.238 85.1348V72.1905H111.87H112.807C115.872 72.1905 118.879 71.6633 121.71 70.6676C123.525 65.2205 122.276 58.9924 117.941 54.6776C113.002 49.7381 105.583 48.801 99.7062 51.8662C97.6953 45.5405 91.7991 40.9524 84.8095 40.9524C77.82 40.9524 71.9238 45.5405 69.9129 51.8662C64.0362 48.801 56.6172 49.7381 51.6776 54.6776C46.7381 59.6172 45.801 67.0362 48.8662 72.9129C42.5405 74.9238 37.9524 80.82 37.9524 87.8095C37.9524 94.7991 42.5405 100.695 48.8662 102.706C45.801 108.583 46.7381 116.002 51.6776 120.941C55.4067 124.67 60.5414 126.115 65.3638 125.276C66.9452 125.022 68.4681 124.495 69.9129 123.753C71.5919 129.024 75.9457 133.085 81.3929 134.276C82.4862 134.53 83.6381 134.667 84.8095 134.667C91.7991 134.667 97.6953 130.079 99.7062 123.753C101.151 124.495 102.674 125.022 104.255 125.276C109.078 126.115 114.212 124.67 117.941 120.941C120.675 118.208 122.178 114.733 122.471 111.18C118.586 108.68 115.325 105.361 112.924 101.476Z" fill="white"/>
<path d="M80.5728 92.7101L78.9524 97.5715L73.6614 98.333C73.6224 98.333 73.6028 98.333 73.5638 98.3525C68.8 99.0749 65.2857 103.175 65.2857 107.997V112.195C58.14 106.474 53.5714 97.6887 53.5714 87.8096C53.5714 70.5506 67.5505 56.5715 84.8095 56.5715C96.3676 56.5715 106.461 62.8582 111.87 72.1906H108.238V85.1349C108.238 91.0701 109.937 96.693 112.924 101.476H112.904C110.874 105.654 107.926 109.325 104.333 112.175V107.997C104.333 103.175 100.819 99.0749 96.0552 98.3525C96.0162 98.333 95.9967 98.333 95.9576 98.333L90.6666 97.5715L89.0462 92.7101C91.76 91.3825 93.7709 88.8834 94.3762 85.8572L96.3286 83.0653C97.7343 81.0739 98.4762 78.692 98.4762 76.2515C98.4762 72.9715 97.1486 70.0039 95.0009 67.8563C92.8533 65.7087 89.8857 64.3811 86.6057 64.3811H83.0133C76.4533 64.3811 71.1428 69.6915 71.1428 76.2515C71.1428 78.692 71.8847 81.0739 73.2905 83.0653L75.2428 85.8572C75.6333 87.7706 76.5705 89.4887 77.8981 90.8163L80.5728 92.7101Z" fill="white"/>
<path d="M96.3285 83.0651L94.3762 85.857C94.5128 85.2323 94.5714 84.5685 94.5714 83.9047V81.347C94.5714 79.4532 93.1852 77.8132 91.3109 77.5009L87.5038 76.8761C85.8833 76.6028 84.4385 75.8413 83.3257 74.7285L83.3062 74.748L78.7376 76.5832C76.5119 77.4618 75.0476 79.6094 75.0476 82.0109V83.9047C75.0476 84.5685 75.1062 85.2323 75.2428 85.857L73.2904 83.0651C71.8847 81.0737 71.1428 78.6918 71.1428 76.2513C71.1428 69.6913 76.4533 64.3809 83.0133 64.3809H86.6057C89.8857 64.3809 92.8533 65.7085 95.0009 67.8561C97.1485 70.0037 98.4762 72.9713 98.4762 76.2513C98.4762 78.6918 97.7343 81.0737 96.3285 83.0651Z" fill="white"/>
<path d="M104.333 107.997V112.175C98.9839 116.49 92.2091 119.048 84.8096 119.048C77.4296 119.048 70.6353 116.49 65.2858 112.195V107.997C65.2858 103.175 68.8001 99.0747 73.5639 98.3523L78.9524 107.333L84.8096 101.476L90.6667 107.333L96.0553 98.3523C100.819 99.0747 104.333 103.175 104.333 107.997Z" fill="white"/>
<path d="M78.9524 97.5715L84.8096 101.476L78.9524 107.333L73.5638 98.3525C73.6029 98.333 73.6224 98.333 73.6615 98.333L78.9524 97.5715Z" fill="white"/>
<path d="M96.0553 98.3525L90.6667 107.333L84.8096 101.476L90.6667 97.5715L95.9577 98.333C95.9967 98.333 96.0162 98.333 96.0553 98.3525Z" fill="white"/>
<path d="M84.8095 93.6666C86.3324 93.6666 87.7772 93.3152 89.0462 92.71L90.6667 97.5714L84.8095 101.476L78.9524 97.5714L80.5729 92.71L84.8095 93.6666Z" fill="white"/>
<path d="M94.3762 85.8571C93.7709 88.8833 91.76 91.3823 89.0462 92.7099C87.7771 93.3152 86.3324 93.6666 84.8095 93.6666L80.5728 92.7099L77.8981 90.8161C76.5705 89.4885 75.6333 87.7704 75.2428 85.8571C75.1062 85.2323 75.0476 84.5685 75.0476 83.9047V82.0109C75.0476 79.6095 76.5119 77.4618 78.7376 76.5833L83.3062 74.748L83.3257 74.7285C84.4386 75.8414 85.8833 76.6028 87.5038 76.8761L91.3109 77.5009C93.1852 77.8133 94.5714 79.4533 94.5714 81.3471V83.9047C94.5714 84.5685 94.5128 85.2323 94.3762 85.8571Z" fill="white"/>
<path d="M155.095 72.1904V85.1347C155.095 92.2218 152.674 98.8794 148.535 104.17C144.396 109.481 138.539 113.425 131.667 115.143C128.328 114.303 125.243 112.956 122.471 111.179C118.586 108.68 115.325 105.361 112.924 101.476C109.937 96.6928 108.238 91.0699 108.238 85.1347V72.1904H111.87H112.807C115.872 72.1904 118.879 71.6632 121.71 70.6675C125.419 69.3399 128.836 67.2118 131.667 64.3809C136.665 69.379 143.44 72.1904 150.527 72.1904H155.095Z" fill="white"/>
<path fill-rule="evenodd" clip-rule="evenodd" d="M133.047 63.0006C137.715 67.6688 143.92 70.2381 150.521 70.2381H157.048V85.1367C157.048 100.254 146.805 113.372 132.141 117.035L131.667 117.154L131.194 117.035C128.617 116.392 126.188 115.442 123.916 114.255C123.139 117.289 121.563 120.084 119.324 122.324C115.95 125.697 111.499 127.425 106.977 127.441L114.941 152.658L99.1673 150.405L87.8025 161.77L84.8095 152.043L81.8185 161.77L70.4537 150.405L54.6804 152.658L62.6422 127.443C58.1205 127.427 53.669 125.697 50.2953 122.324C45.3695 117.398 43.8583 110.174 46.2441 103.784C40.0375 100.953 36 94.7776 36 87.8095C36 80.8415 40.0375 74.6661 46.2441 71.8351C43.8583 65.445 45.3695 58.2212 50.2953 53.2953C55.2251 48.3675 62.447 46.8564 68.8351 49.2441C71.6661 43.0375 77.8415 39 84.8095 39C91.7776 39 97.953 43.0375 100.784 49.2441C107.174 46.8583 114.398 48.3695 119.324 53.2953C123.102 57.0732 124.861 62.2255 124.357 67.3837C126.512 66.2416 128.512 64.7753 130.286 63.0006L131.667 61.6203L133.047 63.0006ZM73.3764 147.806L79.993 154.421L82.7673 145.405L79.8446 135.906C75.0047 134.493 70.9691 131.053 68.8351 126.375C68.1967 126.613 67.5466 126.783 66.8945 126.945L60.272 147.914L69.6727 146.57L73.1968 136L76.9004 137.236L73.3764 147.806ZM109.347 147.914L99.9463 146.57L96.4223 136L92.7186 137.236L96.2427 147.806L89.626 154.421L84.132 136.57C84.2345 136.574 84.3354 136.584 84.4361 136.594L84.4364 136.594C84.5601 136.607 84.6836 136.619 84.8095 136.619C91.7776 136.619 97.9529 132.582 100.784 126.375C101.422 126.613 102.072 126.783 102.725 126.945L109.347 147.914ZM100.602 122.029C105.915 124.792 112.328 123.796 116.563 119.563C118.597 117.527 119.88 114.893 120.337 112.074C117.569 110.141 115.122 107.818 113.088 105.168C107.076 115.002 96.5199 121 84.8095 121C66.5079 121 51.619 106.111 51.619 87.8095C51.619 69.5079 66.5079 54.619 84.8095 54.619C96.2349 54.619 106.901 60.5797 112.947 70.2303C115.405 70.2186 117.809 69.8496 120.095 69.1487C121.315 64.459 120.023 59.5176 116.563 56.056C112.328 51.8213 105.915 50.8314 100.602 53.5901L98.5406 54.662L97.8397 52.446C96.0357 46.7392 90.7975 42.9048 84.8095 42.9048C78.8216 42.9048 73.5833 46.7392 71.7793 52.446L71.0784 54.662L69.0167 53.5901C63.7082 50.8353 57.2907 51.8232 53.056 56.056C48.8232 60.2907 47.8314 66.7043 50.5901 72.0167L51.662 74.0784L49.446 74.7793C43.7392 76.5833 39.9048 81.8216 39.9048 87.8095C39.9048 93.7994 43.7392 99.0357 49.446 100.836L51.662 101.537L50.5901 103.598C47.8314 108.911 48.8213 115.326 53.056 119.561C57.2907 123.794 63.7043 124.792 69.0167 122.027L71.0784 120.957L71.7793 123.171C73.5833 128.88 78.8216 132.714 84.8095 132.714C90.7975 132.714 96.0357 128.88 97.8397 123.173L98.5406 120.959L100.602 122.029ZM110.671 101.527C109.452 103.825 107.973 105.918 106.264 107.765C106.151 102.072 101.885 97.2024 96.2271 96.3941L92.1368 95.8104L91.3949 93.5847C93.7475 91.9798 95.4754 89.5354 96.1743 86.6928L97.9295 84.1879C99.5637 81.8509 100.429 79.1097 100.429 76.2573C100.429 68.6313 94.2259 62.4286 86.5999 62.4286H83.0172C75.3932 62.4286 69.1905 68.6313 69.1905 76.2573C69.1905 79.1097 70.0554 81.8509 71.6915 84.1879L73.4447 86.6928C74.1437 89.5374 75.8715 91.9798 78.2241 93.5847L77.4822 95.8104L73.392 96.3941C67.7613 97.1985 63.5149 102.027 63.3626 107.685C58.5149 102.456 55.5238 95.4843 55.5238 87.8095C55.5238 71.6614 68.6614 58.5238 84.8095 58.5238C94.0501 58.5238 102.732 62.942 108.226 70.2381H106.286V85.1367C106.286 91.0602 107.877 96.6655 110.671 101.527ZM80.2273 73.8734C79.9461 73.3619 79.708 72.8211 79.5186 72.253L79.0539 70.857L82.7576 69.6231L83.2222 71.019C83.9114 73.0808 85.6705 74.586 87.8162 74.9433L91.6292 75.5798C93.6987 75.9234 95.3426 77.3155 96.0865 79.1566C96.3715 78.2253 96.5238 77.251 96.5238 76.2573C96.5238 70.7848 92.0724 66.3333 86.6018 66.3333H83.0192C77.5467 66.3333 73.0952 70.7848 73.0952 76.2573C73.0952 77.3116 73.267 78.3424 73.5872 79.3264C74.333 77.2862 75.8969 75.6071 78.0055 74.7637L80.2273 73.8734ZM77 82.0129C77 80.4061 77.9645 78.9828 79.4541 78.3873L82.9391 76.9933C84.1633 77.9051 85.6061 78.5338 87.1719 78.7934L90.9849 79.4299C91.9318 79.588 92.619 80.3983 92.619 81.3549V83.9009C92.619 88.2078 89.1165 91.7123 84.8095 91.7143C80.5026 91.7123 77 88.2078 77 83.9009V82.0129ZM92.8748 99.8596L91.1294 99.6097L87.8748 101.781L90.2801 104.186L92.8748 99.8596ZM84.8095 99.1294L81.2757 96.7729L81.797 95.209C82.7595 95.4687 83.765 95.619 84.8056 95.619H84.8134C85.854 95.619 86.8595 95.4687 87.822 95.211L88.3433 96.7749L84.8095 99.1294ZM79.339 104.186L81.7443 101.781L78.4897 99.6097L76.7442 99.8596L79.339 104.186ZM78.5639 110.483L84.8095 104.237L91.0552 110.483L96.9982 100.574C100.144 101.611 102.381 104.59 102.381 107.991V111.267C97.4239 114.989 91.3207 117.095 84.8095 117.095C78.2124 117.095 72.1386 114.877 67.2381 111.183V107.991C67.2381 104.59 69.4755 101.611 72.6208 100.574L78.5639 110.483ZM131.667 113.126C144.336 109.737 153.143 98.2958 153.143 85.1367V74.1429H150.521C143.51 74.1429 136.885 71.6399 131.667 67.0557C126.446 71.6399 119.822 74.1429 112.813 74.1429H110.19V85.1367C110.19 98.2958 118.998 109.737 131.667 113.126Z" fill="#3490CF"/>
<path d="M127.762 96.7631L121.333 90.3339L118.572 93.0946L127.762 102.284L148.666 81.3803L145.905 78.6196L127.762 96.7631Z" fill="#3490CF"/>
</svg>
