<svg width="182" height="201" viewBox="0 0 182 201" fill="none" xmlns="http://www.w3.org/2000/svg">
<path fill-rule="evenodd" clip-rule="evenodd" d="M181.18 135.753V64.5467C181.18 54.206 175.665 44.6522 166.71 39.4796L105.059 3.87777C96.1047 -1.29259 85.0734 -1.29259 76.121 3.87777L14.468 39.4796C5.51567 44.6522 0 54.206 0 64.5467V135.753C0 146.093 5.51567 155.649 14.468 160.82L76.121 196.422C85.0734 201.594 96.1047 201.594 105.059 196.422L166.71 160.82C175.665 155.649 181.18 146.093 181.18 135.753Z" fill="#3490CF"/>
<path d="M97.9147 62.7969C96.7429 62.7969 95.7935 61.8472 95.7935 60.6757V47.2569C95.7935 45.0509 93.9988 43.2561 91.7925 43.2561H62.9921C60.7858 43.2561 58.991 45.0509 58.991 47.2569V60.6757C58.991 61.8475 58.0413 62.7969 56.8698 62.7969C55.698 62.7969 54.7486 61.8472 54.7486 60.6757V47.2569C54.7486 42.7114 58.4468 39.0134 62.9923 39.0134H91.7925C96.338 39.0134 100.036 42.7114 100.036 47.2569V60.6757C100.036 61.8472 99.0865 62.7969 97.9147 62.7969Z" fill="#2B4D66"/>
<path d="M127.311 126.699H35.5427C31.0862 126.699 27.4733 123.086 27.4733 118.63V71.3843H127.311V126.699Z" fill="white"/>
<path d="M27.4733 95.7193C28.7931 97.0734 30.6279 97.8982 32.6237 97.8982H127.311V71.3843H27.4733L27.4733 95.7193Z" fill="#B57AD2"/>
<path d="M128.008 55.0188H26.7768C22.4152 55.0188 19.1906 59.0805 20.1795 63.3284L25.6154 86.6773C26.374 89.9357 29.2782 92.2414 32.6239 92.2414H127.874L134.605 63.3282C135.594 59.0805 132.369 55.0188 128.008 55.0188V55.0188Z" fill="white"/>
<path d="M128.008 55.0188H120.795C125.157 55.0188 128.382 59.0805 127.393 63.3284L120.661 92.2417H127.874L134.605 63.3284C135.594 59.0805 132.369 55.0188 128.008 55.0188Z" fill="#B57AD2"/>
<circle cx="122.934" cy="124.349" r="37.6372" fill="#B57AD2"/>
<path d="M122.934 86.7122C121.937 86.7122 120.948 86.7517 119.97 86.828C139.37 88.3397 154.642 104.561 154.642 124.349C154.642 144.138 139.37 160.359 119.97 161.871C120.948 161.947 121.936 161.987 122.934 161.987C143.721 161.987 160.571 145.136 160.571 124.35C160.571 103.563 143.721 86.7122 122.934 86.7122V86.7122Z" fill="#B57AD2"/>
<circle cx="122.934" cy="124.349" r="28.0734" fill="#F4FBFF"/>
<path d="M122.934 96.2761C121.633 96.2761 120.354 96.3665 119.1 96.5378C132.79 98.4078 143.339 110.146 143.339 124.349C143.339 138.553 132.79 150.291 119.1 152.161C120.354 152.332 121.633 152.423 122.934 152.423C138.439 152.423 151.008 139.854 151.008 124.349C151.007 108.845 138.439 96.2761 122.934 96.2761V96.2761Z" fill="#DAF1F4"/>
<path d="M122.934 107.037C121.762 107.037 120.813 106.087 120.813 104.916V103.944C120.813 102.773 121.763 101.823 122.934 101.823C124.106 101.823 125.055 102.773 125.055 103.944V104.916C125.055 106.087 124.106 107.037 122.934 107.037Z" fill="#365E7D"/>
<path d="M136.676 112.729C136.133 112.729 135.59 112.522 135.175 112.108C134.347 111.279 134.347 109.936 135.175 109.107L135.863 108.42C136.691 107.592 138.034 107.592 138.863 108.42C139.691 109.249 139.691 110.592 138.863 111.42L138.176 112.108C137.761 112.522 137.218 112.729 136.676 112.729Z" fill="#365E7D"/>
<path d="M143.339 126.471H142.368C141.196 126.471 140.246 125.521 140.246 124.349C140.246 123.178 141.196 122.228 142.368 122.228H143.339C144.511 122.228 145.461 123.178 145.461 124.349C145.461 125.521 144.511 126.471 143.339 126.471Z" fill="#365E7D"/>
<path d="M103.5 126.471H102.529C101.357 126.471 100.408 125.521 100.408 124.349C100.408 123.178 101.357 122.228 102.529 122.228H103.5C104.672 122.228 105.622 123.178 105.622 124.349C105.622 125.521 104.672 126.471 103.5 126.471Z" fill="#365E7D"/>
<path d="M137.363 140.899C136.82 140.899 136.277 140.692 135.863 140.278L135.176 139.591C134.347 138.763 134.347 137.42 135.175 136.591C136.004 135.762 137.347 135.762 138.175 136.591L138.862 137.278C139.691 138.106 139.691 139.449 138.863 140.278C138.449 140.692 137.906 140.899 137.363 140.899Z" fill="#365E7D"/>
<path d="M122.934 146.876C121.762 146.876 120.813 145.926 120.813 144.755V143.783C120.813 142.612 121.763 141.662 122.934 141.662C124.106 141.662 125.055 142.612 125.055 143.783V144.755C125.055 145.926 124.106 146.876 122.934 146.876Z" fill="#365E7D"/>
<path d="M108.506 140.899C107.963 140.899 107.42 140.692 107.005 140.278C106.177 139.449 106.177 138.107 107.005 137.278L107.692 136.591C108.521 135.763 109.864 135.763 110.693 136.591C111.521 137.419 111.521 138.762 110.693 139.591L110.006 140.278C109.591 140.692 109.048 140.899 108.506 140.899Z" fill="#365E7D"/>
<path d="M109.193 112.729C108.649 112.729 108.106 112.522 107.692 112.107L107.005 111.42C106.177 110.592 106.177 109.249 107.006 108.42C107.834 107.592 109.177 107.592 110.006 108.421L110.693 109.108C111.521 109.936 111.521 111.279 110.692 112.108C110.278 112.522 109.735 112.729 109.193 112.729Z" fill="#365E7D"/>
<path d="M128.716 126.471H122.934C121.762 126.471 120.813 125.521 120.813 124.35V113.154C120.813 111.982 121.763 111.032 122.934 111.032C124.106 111.032 125.055 111.982 125.055 113.154V122.228H128.716C129.888 122.228 130.837 123.178 130.837 124.349C130.837 125.521 129.888 126.471 128.716 126.471Z" fill="#2B4D66"/>
<path d="M83.2596 99.9447H71.5249C69.7875 99.9447 68.3788 98.5362 68.3788 96.7985V87.66C68.3788 85.9227 69.7872 84.5139 71.5249 84.5139H83.2596C84.997 84.5139 86.4057 85.9224 86.4057 87.66V96.7985C86.4057 98.5362 84.997 99.9447 83.2596 99.9447Z" fill="#B57AD2"/>
<path d="M83.2596 84.5139H77.866C79.6033 84.5139 81.0121 85.9224 81.0121 87.66V96.7985C81.0121 98.5359 79.6036 99.9447 77.866 99.9447H83.2596C84.9969 99.9447 86.4057 98.5362 86.4057 96.7985V87.66C86.4057 85.9227 84.9969 84.5139 83.2596 84.5139Z" fill="#D1B4E0"/>
</svg>
