<svg width="74" height="21" viewBox="0 0 74 21" fill="none" xmlns="http://www.w3.org/2000/svg">
<path fill-rule="evenodd" clip-rule="evenodd" d="M28.38 19.675C27.2533 20.169 25.9707 20.416 24.532 20.416C23.1107 20.416 21.8323 20.169 20.697 19.675C19.5617 19.181 18.604 18.5007 17.824 17.634C17.044 16.7673 16.446 15.749 16.03 14.579C15.614 13.409 15.406 12.148 15.406 10.796C15.406 9.40934 15.614 8.12234 16.03 6.935C16.446 5.74767 17.044 4.712 17.824 3.828C18.604 2.944 19.5617 2.25067 20.697 1.748C21.8323 1.24534 23.1107 0.994003 24.532 0.994003C25.9707 0.994003 27.2533 1.24534 28.38 1.748C29.5067 2.25067 30.46 2.944 31.24 3.828C32.02 4.712 32.618 5.74767 33.034 6.935C33.45 8.12234 33.658 9.40934 33.658 10.796C33.658 12.148 33.45 13.409 33.034 14.579C32.618 15.749 32.02 16.7673 31.24 17.634C30.46 18.5007 29.5067 19.181 28.38 19.675ZM13.924 16.568V20H0.794006V1.436H4.87601V16.568H13.924ZM24.532 17.01C23.6133 17.01 22.8333 16.8323 22.192 16.477C21.5507 16.1217 21.0307 15.6493 20.632 15.06C20.2333 14.4707 19.943 13.8077 19.761 13.071C19.579 12.3343 19.488 11.576 19.488 10.796C19.488 9.98134 19.579 9.19267 19.761 8.43C19.943 7.66734 20.2333 6.987 20.632 6.389C21.0307 5.791 21.5507 5.31434 22.192 4.959C22.8333 4.60367 23.6133 4.426 24.532 4.426C25.4507 4.426 26.2307 4.60367 26.872 4.959C27.5133 5.31434 28.0333 5.791 28.432 6.389C28.8307 6.987 29.121 7.66734 29.303 8.43C29.485 9.19267 29.576 9.98134 29.576 10.796C29.576 11.576 29.485 12.3343 29.303 13.071C29.121 13.8077 28.8307 14.4707 28.432 15.06C28.0333 15.6493 27.5133 16.1217 26.872 16.477C26.2307 16.8323 25.4507 17.01 24.532 17.01ZM47.438 19.857C46.554 20.2297 45.6613 20.416 44.76 20.416C43.3387 20.416 42.0603 20.169 40.925 19.675C39.7897 19.181 38.832 18.5007 38.052 17.634C37.272 16.7673 36.674 15.749 36.258 14.579C35.842 13.409 35.634 12.148 35.634 10.796C35.634 9.40934 35.842 8.12234 36.258 6.935C36.674 5.74767 37.272 4.712 38.052 3.828C38.832 2.944 39.7897 2.25067 40.925 1.748C42.0603 1.24534 43.3387 0.994003 44.76 0.994003C45.7133 0.994003 46.6363 1.137 47.529 1.423C48.4217 1.709 49.2277 2.12934 49.947 2.684C50.6663 3.23867 51.26 3.92334 51.728 4.738C52.196 5.55267 52.482 6.48867 52.586 7.546H48.686C48.4433 6.506 47.9753 5.726 47.282 5.206C46.5887 4.686 45.748 4.426 44.76 4.426C43.8413 4.426 43.0613 4.60367 42.42 4.959C41.7787 5.31434 41.2587 5.791 40.86 6.389C40.4613 6.987 40.171 7.66734 39.989 8.43C39.807 9.19267 39.716 9.98134 39.716 10.796C39.716 11.576 39.807 12.3343 39.989 13.071C40.171 13.8077 40.4613 14.4707 40.86 15.06C41.2587 15.6493 41.7787 16.1217 42.42 16.477C43.0613 16.8323 43.8413 17.01 44.76 17.01C46.112 17.01 47.1563 16.6677 47.893 15.983C48.6297 15.2983 49.0587 14.306 49.18 13.006H45.072V9.964H52.872V20H50.272L49.856 17.894C49.128 18.83 48.322 19.4843 47.438 19.857ZM64.494 20.416C65.9327 20.416 67.2153 20.169 68.342 19.675C69.4687 19.181 70.422 18.5007 71.202 17.634C71.982 16.7673 72.58 15.749 72.996 14.579C73.412 13.409 73.62 12.148 73.62 10.796C73.62 9.40934 73.412 8.12234 72.996 6.935C72.58 5.74767 71.982 4.712 71.202 3.828C70.422 2.944 69.4687 2.25067 68.342 1.748C67.2153 1.24534 65.9327 0.994003 64.494 0.994003C63.0727 0.994003 61.7943 1.24534 60.659 1.748C59.5237 2.25067 58.566 2.944 57.786 3.828C57.006 4.712 56.408 5.74767 55.992 6.935C55.576 8.12234 55.368 9.40934 55.368 10.796C55.368 12.148 55.576 13.409 55.992 14.579C56.408 15.749 57.006 16.7673 57.786 17.634C58.566 18.5007 59.5237 19.181 60.659 19.675C61.7943 20.169 63.0727 20.416 64.494 20.416ZM62.154 16.477C62.7953 16.8323 63.5753 17.01 64.494 17.01C65.4127 17.01 66.1927 16.8323 66.834 16.477C67.4753 16.1217 67.9953 15.6493 68.394 15.06C68.7927 14.4707 69.083 13.8077 69.265 13.071C69.447 12.3343 69.538 11.576 69.538 10.796C69.538 9.98134 69.447 9.19267 69.265 8.43C69.083 7.66734 68.7927 6.987 68.394 6.389C67.9953 5.791 67.4753 5.31434 66.834 4.959C66.1927 4.60367 65.4127 4.426 64.494 4.426C63.5753 4.426 62.7953 4.60367 62.154 4.959C61.5127 5.31434 60.9927 5.791 60.594 6.389C60.1953 6.987 59.905 7.66734 59.723 8.43C59.541 9.19267 59.45 9.98134 59.45 10.796C59.45 11.576 59.541 12.3343 59.723 13.071C59.905 13.8077 60.1953 14.4707 60.594 15.06C60.9927 15.6493 61.5127 16.1217 62.154 16.477Z" fill="#B57AD2"/>
</svg>
