<svg width="20" height="21" viewBox="0 0 20 21" fill="none" xmlns="http://www.w3.org/2000/svg">
<g id="Pointer" filter="url(#filter0_d)">
<mask id="path-1-outside-1" maskUnits="userSpaceOnUse" x="2.22742" y="1.62646" width="16" height="17" fill="black">
<rect fill="white" x="2.22742" y="1.62646" width="16" height="17"/>
<path fill-rule="evenodd" clip-rule="evenodd" d="M8.34378 16.9638C8.34378 16.9638 6.08658 15.2241 5.29246 13.8915C4.49835 12.5589 2.99354 10.8612 3.25824 9.79514C3.52295 8.72905 4.49835 8.39306 5.29246 9.19264C6.08658 9.99221 6.62151 11.7246 7.15092 11.4581C7.68033 11.1916 7.28328 8.65959 6.75387 7.19371C6.22446 5.72783 5.6725 2.62647 6.75387 2.62646C7.83523 2.62646 7.83523 3.65056 8.34378 5.18671C8.85234 6.72285 8.45528 8.77104 8.85234 8.77104C9.2494 8.77104 9.40092 8.41326 9.40092 7.74695C9.40092 7.56587 9.43617 7.41283 9.50777 7.28596C9.69961 6.94598 10.1523 6.79392 10.8866 6.79392C11.8948 6.79392 11.3951 8.77104 11.9037 8.77104C12.4122 8.77104 12.4122 8.81304 12.4122 7.74695C12.4122 6.68085 12.8838 6.79392 13.9009 6.79392C14.918 6.79392 14.4256 8.77104 14.955 8.77104C15.4844 8.77104 14.955 7.74695 15.4635 7.74695C15.9721 7.74695 16.4806 7.90848 16.4806 10.3072C16.4807 12.7059 16.7662 12.8254 15.9721 13.8915C15.178 14.9576 14.4464 15.9397 14.4464 15.9397C14.4464 15.9397 14.4464 16.9638 13.9009 16.9638C13.3554 16.9638 13.074 15.9397 12.4122 15.9397C11.7505 15.9397 11.3951 16.9638 11.3951 16.9638H8.34378ZM14.4464 14.9156V10.8192H13.4293V14.9156H14.4464ZM11.3951 13.8915C11.3951 14.1689 11.631 14.9156 11.9037 14.9156C12.1845 14.9156 12.4122 14.1736 12.4122 13.8915V11.8433C12.4122 11.5659 12.1763 10.8192 11.9037 10.8192C11.6228 10.8192 11.3951 11.5613 11.3951 11.8433V13.8915ZM9.36089 13.8915C9.36089 14.1689 9.59679 14.9156 9.86945 14.9156C10.1503 14.9156 10.378 14.1736 10.378 13.8915V11.8433C10.378 11.5659 10.1421 10.8192 9.86945 10.8192C9.58858 10.8192 9.36089 11.5613 9.36089 11.8433V13.8915Z"/>
</mask>
<path fill-rule="evenodd" clip-rule="evenodd" d="M8.34378 16.9638C8.34378 16.9638 6.08658 15.2241 5.29246 13.8915C4.49835 12.5589 2.99354 10.8612 3.25824 9.79514C3.52295 8.72905 4.49835 8.39306 5.29246 9.19264C6.08658 9.99221 6.62151 11.7246 7.15092 11.4581C7.68033 11.1916 7.28328 8.65959 6.75387 7.19371C6.22446 5.72783 5.6725 2.62647 6.75387 2.62646C7.83523 2.62646 7.83523 3.65056 8.34378 5.18671C8.85234 6.72285 8.45528 8.77104 8.85234 8.77104C9.2494 8.77104 9.40092 8.41326 9.40092 7.74695C9.40092 7.56587 9.43617 7.41283 9.50777 7.28596C9.69961 6.94598 10.1523 6.79392 10.8866 6.79392C11.8948 6.79392 11.3951 8.77104 11.9037 8.77104C12.4122 8.77104 12.4122 8.81304 12.4122 7.74695C12.4122 6.68085 12.8838 6.79392 13.9009 6.79392C14.918 6.79392 14.4256 8.77104 14.955 8.77104C15.4844 8.77104 14.955 7.74695 15.4635 7.74695C15.9721 7.74695 16.4806 7.90848 16.4806 10.3072C16.4807 12.7059 16.7662 12.8254 15.9721 13.8915C15.178 14.9576 14.4464 15.9397 14.4464 15.9397C14.4464 15.9397 14.4464 16.9638 13.9009 16.9638C13.3554 16.9638 13.074 15.9397 12.4122 15.9397C11.7505 15.9397 11.3951 16.9638 11.3951 16.9638H8.34378ZM14.4464 14.9156V10.8192H13.4293V14.9156H14.4464ZM11.3951 13.8915C11.3951 14.1689 11.631 14.9156 11.9037 14.9156C12.1845 14.9156 12.4122 14.1736 12.4122 13.8915V11.8433C12.4122 11.5659 12.1763 10.8192 11.9037 10.8192C11.6228 10.8192 11.3951 11.5613 11.3951 11.8433V13.8915ZM9.36089 13.8915C9.36089 14.1689 9.59679 14.9156 9.86945 14.9156C10.1503 14.9156 10.378 14.1736 10.378 13.8915V11.8433C10.378 11.5659 10.1421 10.8192 9.86945 10.8192C9.58858 10.8192 9.36089 11.5613 9.36089 11.8433V13.8915Z" fill="white"/>
<path d="M8.34378 16.9638L7.73333 17.7559L8.00314 17.9638H8.34378V16.9638ZM3.25824 9.79514L4.22878 10.0361L3.25824 9.79514ZM5.29246 9.19264L4.58294 9.89732L5.29246 9.19264ZM7.15092 11.4581L6.70126 10.5649H6.70126L7.15092 11.4581ZM6.75387 7.19371L7.69441 6.85403L6.75387 7.19371ZM6.75387 2.62646V1.62646H6.75387L6.75387 2.62646ZM8.85234 8.77104L8.85234 9.77104H8.85234L8.85234 8.77104ZM9.40092 7.74695H8.40092H9.40092ZM9.50777 7.28596L8.63685 6.79452L9.50777 7.28596ZM10.8866 6.79392V5.79392V6.79392ZM11.9037 8.77104V7.77104V8.77104ZM12.4122 7.74695L11.4122 7.74695L12.4122 7.74695ZM13.9009 6.79392V5.79392V6.79392ZM14.955 8.77104V9.77104V8.77104ZM15.4635 7.74695V6.74695V7.74695ZM16.4806 10.3072L15.4806 10.3072L16.4806 10.3072ZM14.4464 15.9397L13.6445 15.3423L13.4464 15.6082V15.9397H14.4464ZM13.9009 16.9638V15.9638V16.9638ZM12.4122 15.9397V14.9397V15.9397ZM11.3951 16.9638V17.9638H12.1066L12.3399 17.2916L11.3951 16.9638ZM14.4464 14.9156V15.9156H15.4464V14.9156H14.4464ZM14.4464 10.8192H15.4464V9.81924H14.4464V10.8192ZM13.4293 10.8192V9.81924H12.4293V10.8192H13.4293ZM13.4293 14.9156H12.4293V15.9156H13.4293V14.9156ZM8.34378 16.9638C8.95424 16.1718 8.9543 16.1718 8.95436 16.1719C8.95437 16.1719 8.95443 16.1719 8.95444 16.1719C8.95448 16.1719 8.95448 16.1719 8.95445 16.1719C8.95438 16.1719 8.95418 16.1717 8.95385 16.1715C8.95318 16.1709 8.95199 16.17 8.95027 16.1687C8.94684 16.166 8.94134 16.1617 8.93388 16.1559C8.91896 16.1443 8.89622 16.1264 8.86657 16.1029C8.80724 16.0559 8.7204 15.9863 8.61322 15.8983C8.39837 15.7219 8.1043 15.4736 7.78752 15.1865C7.12675 14.5875 6.46506 13.9058 6.1515 13.3796L4.43342 14.4034C4.91397 15.2099 5.77794 16.0643 6.44431 16.6683C6.7911 16.9827 7.11097 17.2526 7.34416 17.4441C7.461 17.54 7.55671 17.6167 7.62392 17.67C7.65754 17.6967 7.68407 17.7175 7.7026 17.732C7.71187 17.7392 7.71914 17.7449 7.7243 17.7489C7.72688 17.7509 7.72893 17.7525 7.73044 17.7536C7.7312 17.7542 7.73182 17.7547 7.7323 17.7551C7.73254 17.7553 7.73275 17.7554 7.73292 17.7555C7.73301 17.7556 7.73311 17.7557 7.73315 17.7557C7.73325 17.7558 7.73333 17.7559 8.34378 16.9638ZM6.1515 13.3796C5.934 13.0146 5.67254 12.6322 5.42758 12.2744C5.1752 11.9056 4.93672 11.5578 4.73169 11.2221C4.52481 10.8834 4.37812 10.5985 4.29589 10.3652C4.21031 10.1223 4.22957 10.0329 4.22878 10.0361L2.28771 9.55416C2.15456 10.0904 2.26266 10.613 2.4096 11.0299C2.55989 11.4564 2.7894 11.8791 3.0249 12.2646C3.26225 12.6532 3.53232 13.0463 3.77717 13.404C4.02943 13.7726 4.25386 14.1021 4.43342 14.4034L6.1515 13.3796ZM4.22878 10.0361C4.30028 9.74815 4.41497 9.73631 4.37452 9.74893C4.36019 9.75339 4.35751 9.7475 4.38057 9.75465C4.40758 9.76302 4.48043 9.79411 4.58294 9.89732L6.00198 8.48795C5.40823 7.89012 4.59292 7.58584 3.77913 7.8396C2.98627 8.08684 2.48092 8.77603 2.28771 9.55416L4.22878 10.0361ZM4.58294 9.89732C4.86732 10.1837 5.1086 10.6469 5.46296 11.2388C5.60795 11.481 5.80558 11.7992 6.04068 12.035C6.16094 12.1556 6.35363 12.3201 6.62092 12.4138C6.92764 12.5213 7.27689 12.5142 7.60059 12.3513L6.70126 10.5649C6.8926 10.4686 7.10933 10.4657 7.28236 10.5263C7.41597 10.5731 7.4738 10.6398 7.45705 10.623C7.41814 10.5839 7.33314 10.469 7.17895 10.2115C6.93497 9.80394 6.51172 9.00119 6.00198 8.48795L4.58294 9.89732ZM7.60059 12.3513C7.97757 12.1615 8.15498 11.8339 8.23692 11.6277C8.32387 11.4088 8.36281 11.1794 8.38198 10.9823C8.4208 10.583 8.39601 10.1159 8.3427 9.6596C8.23522 8.73979 7.98721 7.66475 7.69441 6.85403L5.81333 7.53339C6.04994 8.18854 6.26516 9.11243 6.35621 9.89171C6.40216 10.285 6.41045 10.5924 6.39137 10.7887C6.38159 10.8893 6.36884 10.9129 6.37823 10.8892C6.38263 10.8782 6.45663 10.688 6.70126 10.5649L7.60059 12.3513ZM7.69441 6.85403C7.45743 6.19787 7.20897 5.14614 7.14725 4.28859C7.1154 3.84615 7.1416 3.55577 7.18275 3.41555C7.20212 3.34954 7.20271 3.39552 7.13001 3.46847C7.03195 3.56687 6.88763 3.62646 6.75387 3.62646L6.75387 1.62646C6.34976 1.62646 5.98614 1.78298 5.71336 2.05671C5.46593 2.30499 5.33636 2.60472 5.26368 2.85236C5.12074 3.33946 5.11526 3.91604 5.15241 4.43217C5.22867 5.49177 5.52089 6.72367 5.81333 7.53339L7.69441 6.85403ZM6.75387 3.62646C6.85697 3.62646 6.83562 3.64697 6.78697 3.61048C6.75588 3.58716 6.7853 3.59123 6.84952 3.736C6.91611 3.88612 6.98046 4.09255 7.07076 4.41122C7.15549 4.71027 7.25856 5.09051 7.39446 5.50099L9.29311 4.87242C9.17473 4.51483 9.08709 4.19101 8.995 3.86599C8.90847 3.5606 8.80989 3.22299 8.67774 2.92506C8.54322 2.62179 8.3381 2.27383 7.98698 2.01049C7.6183 1.73397 7.19145 1.62646 6.75387 1.62646V3.62646ZM7.39446 5.50099C7.5943 6.10463 7.62578 6.85301 7.64007 7.57472C7.6464 7.89457 7.64979 8.26787 7.68436 8.54904C7.70057 8.68092 7.7343 8.89986 7.83471 9.11044C7.94241 9.3363 8.25054 9.77104 8.85234 9.77104L8.85234 7.77104C9.35488 7.77104 9.58856 8.14178 9.63998 8.24963C9.68412 8.3422 9.67976 8.38912 9.66941 8.30499C9.65086 8.15411 9.64728 7.91935 9.63968 7.53514C9.62609 6.84872 9.60183 5.80493 9.29311 4.87242L7.39446 5.50099ZM8.85234 9.77104C9.10644 9.77104 9.38183 9.71195 9.63711 9.55176C9.89054 9.39272 10.0591 9.17487 10.1676 8.96079C10.3654 8.57039 10.4009 8.11751 10.4009 7.74695H8.40092C8.40092 7.87889 8.39318 7.97031 8.38366 8.02969C8.37366 8.09199 8.366 8.09141 8.38347 8.05693C8.40442 8.01559 8.46066 7.92883 8.57402 7.8577C8.68921 7.78541 8.79677 7.77104 8.85234 7.77104L8.85234 9.77104ZM10.4009 7.74695C10.4009 7.72083 10.4035 7.71402 10.4017 7.72161C10.3997 7.73024 10.3936 7.75092 10.3787 7.7774L8.63685 6.79452C8.46182 7.10471 8.40092 7.43652 8.40092 7.74695H10.4009ZM10.3787 7.7774C10.3271 7.86884 10.2638 7.87752 10.3255 7.85581C10.4046 7.82802 10.5749 7.79392 10.8866 7.79392V5.79392C10.1315 5.79392 9.12611 5.92748 8.63685 6.79452L10.3787 7.7774ZM10.8866 7.79392C10.8403 7.79392 10.7506 7.77973 10.6568 7.71924C10.5701 7.66332 10.5324 7.60163 10.525 7.58816C10.5196 7.57852 10.5308 7.59625 10.5471 7.66148C10.5628 7.72454 10.577 7.80582 10.5909 7.91224C10.6099 8.0571 10.6433 8.43866 10.6949 8.67521C10.723 8.80408 10.782 9.03439 10.9299 9.25064C11.1106 9.51483 11.441 9.77104 11.9037 9.77104V7.77104C12.2392 7.77104 12.474 7.96547 12.5807 8.12154C12.6547 8.22966 12.6613 8.30551 12.649 8.24902C12.6197 8.11487 12.6197 8.00215 12.574 7.65273C12.5409 7.3996 12.4769 6.98368 12.2736 6.61754C12.1633 6.41871 11.9952 6.20256 11.7409 6.03851C11.4795 5.8699 11.1848 5.79392 10.8866 5.79392V7.79392ZM11.9037 9.77104C11.9615 9.77104 12.1882 9.77833 12.3728 9.74549C12.4918 9.72432 12.6626 9.6783 12.8363 9.56442C13.0205 9.44366 13.1508 9.28437 13.2367 9.11861C13.3773 8.84697 13.395 8.55478 13.4028 8.41107C13.4126 8.23126 13.4122 8.00109 13.4122 7.74695L11.4122 7.74695C11.4122 8.02585 11.4119 8.19022 11.4057 8.30237C11.4028 8.35568 11.3998 8.36999 11.4013 8.36208C11.4022 8.35675 11.4139 8.28925 11.4606 8.19895C11.5147 8.09457 11.6053 7.98 11.7398 7.89181C11.8638 7.81049 11.975 7.78485 12.0225 7.7764C12.0653 7.7688 12.0861 7.7703 12.0523 7.77095C12.0163 7.77164 11.9847 7.77104 11.9037 7.77104V9.77104ZM13.4122 7.74695C13.4122 7.64828 13.4178 7.58532 13.4233 7.54865C13.4289 7.51175 13.4322 7.51606 13.42 7.54439C13.406 7.57672 13.3762 7.63012 13.3215 7.68463C13.2667 7.73942 13.2099 7.7723 13.169 7.78982C13.1327 7.80536 13.1165 7.80564 13.1377 7.80231C13.1593 7.79893 13.2 7.7947 13.2715 7.79239C13.3428 7.79008 13.4269 7.79011 13.5358 7.79111C13.6388 7.79205 13.7677 7.79392 13.9009 7.79392V5.79392C13.6961 5.79392 13.4122 5.78679 13.2069 5.79344C12.995 5.80029 12.6837 5.82188 12.3813 5.95148C12.023 6.10499 11.7449 6.37827 11.5836 6.75217C11.4441 7.07554 11.4122 7.42788 11.4122 7.74695L13.4122 7.74695ZM13.9009 7.79392C13.8574 7.79392 13.7708 7.78061 13.6794 7.72241C13.5948 7.66852 13.5577 7.60897 13.5504 7.59623C13.5454 7.58739 13.557 7.60564 13.574 7.6711C13.5905 7.73452 13.6056 7.81608 13.6208 7.92311C13.6418 8.07103 13.6793 8.45084 13.7372 8.69395C13.7687 8.82616 13.8337 9.05767 13.9898 9.27299C14.1796 9.53493 14.5095 9.77104 14.955 9.77104V7.77104C15.2681 7.77104 15.4976 7.94537 15.6091 8.09919C15.6868 8.20639 15.6954 8.28344 15.6827 8.23028C15.6523 8.10269 15.6501 7.98822 15.6009 7.64185C15.5651 7.38973 15.4969 6.97421 15.2901 6.60947C15.1777 6.41137 15.008 6.19736 14.7536 6.03534C14.4924 5.86902 14.1986 5.79392 13.9009 5.79392V7.79392ZM14.955 9.77104C15.1867 9.77104 15.4619 9.71234 15.7096 9.52585C15.9517 9.34349 16.0726 9.1102 16.1327 8.93398C16.1902 8.76537 16.2062 8.60912 16.2125 8.50971C16.2189 8.40753 16.2176 8.30762 16.217 8.24881C16.2163 8.17549 16.2162 8.14543 16.2174 8.12286C16.2187 8.098 16.2196 8.13803 16.198 8.20662C16.1747 8.28075 16.1088 8.43928 15.9396 8.57377C15.7611 8.71569 15.5739 8.74695 15.4635 8.74695V6.74695C15.226 6.74695 14.9441 6.81021 14.6951 7.00814C14.4555 7.19863 14.3434 7.43717 14.2899 7.60731C14.2382 7.7719 14.225 7.92394 14.2201 8.01909C14.215 8.11654 14.2166 8.21448 14.2171 8.26918C14.2178 8.33839 14.2175 8.36648 14.2164 8.38432C14.2151 8.40492 14.2151 8.36068 14.2399 8.28807C14.2672 8.20786 14.3386 8.05458 14.5064 7.92823C14.6797 7.79774 14.8556 7.77104 14.955 7.77104V9.77104ZM15.4635 8.74695C15.551 8.74695 15.5083 8.75767 15.4331 8.72447C15.33 8.67896 15.2874 8.61093 15.2905 8.61651C15.3061 8.64435 15.3598 8.7614 15.4055 9.05108C15.4502 9.33441 15.4806 9.73826 15.4806 10.3072L17.4806 10.3072C17.4806 9.0985 17.3635 8.2244 17.0351 7.63859C16.8475 7.30395 16.5824 7.04562 16.2409 6.89486C15.9273 6.75641 15.6304 6.74695 15.4635 6.74695V8.74695ZM15.4806 10.3072C15.4806 10.9276 15.4992 11.4012 15.5136 11.7686C15.5287 12.1523 15.5362 12.3684 15.526 12.539C15.5174 12.6808 15.4979 12.7538 15.4671 12.826C15.4281 12.9171 15.3516 13.0505 15.1701 13.2942L16.7741 14.4889C16.9896 14.1995 17.1752 13.9182 17.3061 13.6121C17.4451 13.287 17.503 12.9803 17.5224 12.6592C17.54 12.3668 17.5257 12.0366 17.5121 11.69C17.4978 11.3269 17.4806 10.8861 17.4806 10.3072L15.4806 10.3072ZM15.1701 13.2942C14.7731 13.8272 14.3917 14.3393 14.1095 14.718C13.9684 14.9074 13.8522 15.0635 13.7712 15.1722C13.7307 15.2266 13.699 15.2691 13.6775 15.2981C13.6667 15.3125 13.6584 15.3236 13.6529 15.3311C13.6501 15.3348 13.648 15.3376 13.6466 15.3395C13.6459 15.3404 13.6454 15.3412 13.645 15.3416C13.6448 15.3419 13.6447 15.342 13.6446 15.3422C13.6446 15.3422 13.6445 15.3423 13.6445 15.3423C13.6445 15.3423 13.6445 15.3423 13.6445 15.3423C13.6445 15.3423 13.6445 15.3423 14.4464 15.9397C15.2484 16.5371 15.2484 16.5371 15.2484 16.5371C15.2484 16.5371 15.2484 16.5371 15.2484 16.537C15.2485 16.537 15.2485 16.537 15.2485 16.5369C15.2486 16.5368 15.2488 16.5366 15.2489 16.5364C15.2493 16.5359 15.2498 16.5352 15.2505 16.5342C15.2519 16.5323 15.254 16.5295 15.2568 16.5258C15.2624 16.5183 15.2706 16.5073 15.2814 16.4928C15.3029 16.4639 15.3346 16.4213 15.3751 16.367C15.4561 16.2582 15.5724 16.1022 15.7134 15.9128C15.9956 15.534 16.377 15.0219 16.7741 14.4889L15.1701 13.2942ZM14.4464 15.9397C13.4464 15.9397 13.4464 15.9395 13.4464 15.9392C13.4464 15.9391 13.4464 15.9389 13.4464 15.9387C13.4464 15.9384 13.4464 15.9381 13.4464 15.9378C13.4464 15.9372 13.4464 15.9367 13.4464 15.9362C13.4464 15.9353 13.4465 15.9346 13.4465 15.9341C13.4465 15.933 13.4465 15.9329 13.4465 15.9335C13.4464 15.9347 13.4464 15.9389 13.4461 15.9457C13.4456 15.9595 13.4444 15.9825 13.4418 16.0113C13.4363 16.0735 13.4263 16.1405 13.4119 16.1944C13.3941 16.2614 13.3883 16.2381 13.4351 16.1796C13.4638 16.1436 13.5191 16.0864 13.6083 16.0386C13.7025 15.988 13.8054 15.9638 13.9009 15.9638V17.9638C14.4034 17.9638 14.7735 17.7084 14.9975 17.428C15.1977 17.1775 15.2942 16.8982 15.3446 16.7091C15.3984 16.5071 15.4225 16.318 15.434 16.1882C15.44 16.121 15.443 16.0639 15.4446 16.0217C15.4455 16.0005 15.4459 15.9828 15.4461 15.969C15.4463 15.9621 15.4463 15.9561 15.4464 15.9512C15.4464 15.9488 15.4464 15.9466 15.4464 15.9447C15.4464 15.9437 15.4464 15.9428 15.4464 15.942C15.4464 15.9416 15.4464 15.9412 15.4464 15.9408C15.4464 15.9406 15.4464 15.9403 15.4464 15.9403C15.4464 15.94 15.4464 15.9397 14.4464 15.9397ZM13.9009 15.9638C14.0999 15.9638 14.2035 16.0627 14.1772 16.0405C14.1384 16.0076 14.0924 15.9548 13.9568 15.7979C13.851 15.6755 13.6727 15.4689 13.4474 15.2998C13.205 15.118 12.8575 14.9397 12.4122 14.9397V16.9397C12.2979 16.9397 12.2336 16.8895 12.2471 16.8996C12.2778 16.9226 12.328 16.972 12.4435 17.1056C12.5292 17.2047 12.6971 17.4079 12.8852 17.5671C13.0858 17.7369 13.4291 17.9638 13.9009 17.9638V15.9638ZM12.4122 14.9397C11.5438 14.9397 11.0284 15.5912 10.8248 15.8951C10.6998 16.0815 10.6093 16.261 10.5507 16.3899C10.5207 16.4557 10.4975 16.5119 10.481 16.5539C10.4727 16.575 10.466 16.5927 10.4609 16.6065C10.4584 16.6134 10.4562 16.6194 10.4545 16.6243C10.4536 16.6268 10.4528 16.629 10.4521 16.6309C10.4518 16.6319 10.4515 16.6328 10.4512 16.6337C10.451 16.6341 10.4509 16.6345 10.4508 16.6349C10.4507 16.6351 10.4506 16.6354 10.4506 16.6355C10.4505 16.6357 10.4504 16.636 11.3951 16.9638C12.3399 17.2916 12.3398 17.2919 12.3397 17.2921C12.3396 17.2922 12.3396 17.2925 12.3395 17.2926C12.3394 17.293 12.3393 17.2933 12.3392 17.2936C12.339 17.2942 12.3388 17.2947 12.3386 17.2952C12.3383 17.2962 12.338 17.2969 12.3378 17.2974C12.3374 17.2985 12.3374 17.2987 12.3376 17.2981C12.338 17.2969 12.3396 17.2926 12.3423 17.2857C12.3478 17.2717 12.3576 17.2479 12.3713 17.2177C12.4 17.1546 12.4396 17.078 12.4862 17.0084C12.536 16.9342 12.5709 16.9022 12.5791 16.896C12.5804 16.895 12.5197 16.9397 12.4122 16.9397V14.9397ZM11.3951 15.9638H8.34378V17.9638H11.3951V15.9638ZM15.4464 14.9156V10.8192H13.4464V14.9156H15.4464ZM14.4464 9.81924H13.4293V11.8192H14.4464V9.81924ZM12.4293 10.8192V14.9156H14.4293V10.8192H12.4293ZM13.4293 15.9156H14.4464V13.9156H13.4293V15.9156ZM10.3951 13.8915C10.3951 14.2106 10.5028 14.6038 10.6253 14.8952C10.6905 15.0502 10.7891 15.2483 10.9334 15.4256C11.0486 15.5673 11.3713 15.9156 11.9037 15.9156V13.9156C12.1061 13.9156 12.258 13.9863 12.345 14.0423C12.4277 14.0955 12.4721 14.1478 12.485 14.1637C12.5083 14.1923 12.4968 14.1863 12.469 14.12C12.445 14.063 12.4231 13.9951 12.4082 13.9334C12.4009 13.9035 12.3969 13.8812 12.3949 13.8681C12.3925 13.8517 12.3951 13.8615 12.3951 13.8915H10.3951ZM11.9037 15.9156C12.4276 15.9156 12.7502 15.5809 12.8739 15.4305C13.0216 15.251 13.1211 15.0504 13.1863 14.8941C13.3099 14.5976 13.4122 14.2068 13.4122 13.8915H11.4122C11.4122 13.8651 11.4144 13.8578 11.412 13.8747C11.41 13.8887 11.4059 13.9114 11.3989 13.9412C11.3844 14.0029 11.3632 14.0695 11.3403 14.1246C11.3134 14.189 11.3033 14.1916 11.3293 14.16C11.3438 14.1424 11.3895 14.0897 11.4734 14.0369C11.5621 13.9811 11.7101 13.9156 11.9037 13.9156V15.9156ZM13.4122 13.8915V11.8433H11.4122V13.8915H13.4122ZM13.4122 11.8433C13.4122 11.5243 13.3045 11.131 13.182 10.8397C13.1168 10.6846 13.0182 10.4866 12.874 10.3093C12.7587 10.1676 12.436 9.81924 11.9037 9.81924V11.8192C11.7012 11.8192 11.5493 11.7486 11.4623 11.6926C11.3796 11.6393 11.3353 11.5871 11.3223 11.5712C11.299 11.5425 11.3105 11.5485 11.3383 11.6148C11.3623 11.6718 11.3842 11.7398 11.3991 11.8015C11.4064 11.8314 11.4105 11.8536 11.4124 11.8667C11.4149 11.8832 11.4122 11.8733 11.4122 11.8433H13.4122ZM11.9037 9.81924C11.3797 9.81924 11.0571 10.154 10.9334 10.3044C10.7857 10.4839 10.6862 10.6844 10.6211 10.8407C10.4974 11.1373 10.3951 11.528 10.3951 11.8433H12.3951C12.3951 11.8698 12.3929 11.8771 12.3953 11.8602C12.3973 11.8462 12.4014 11.8235 12.4084 11.7936C12.4229 11.732 12.4441 11.6653 12.4671 11.6103C12.4939 11.5458 12.504 11.5432 12.478 11.5748C12.4635 11.5925 12.4178 11.6451 12.3339 11.6979C12.2452 11.7538 12.0972 11.8192 11.9037 11.8192V9.81924ZM10.3951 11.8433V13.8915H12.3951V11.8433H10.3951ZM8.36089 13.8915C8.36089 14.2106 8.4686 14.6038 8.59108 14.8952C8.65628 15.0502 8.75493 15.2483 8.89915 15.4256C9.01437 15.5673 9.33707 15.9156 9.86945 15.9156V13.9156C10.0719 13.9156 10.2238 13.9863 10.3108 14.0423C10.3935 14.0955 10.4379 14.1478 10.4508 14.1637C10.4741 14.1923 10.4626 14.1863 10.4348 14.12C10.4108 14.063 10.3889 13.9951 10.374 13.9334C10.3667 13.9035 10.3626 13.8812 10.3607 13.8681C10.3582 13.8517 10.3609 13.8615 10.3609 13.8915H8.36089ZM9.86945 15.9156C10.3934 15.9156 10.716 15.5809 10.8397 15.4305C10.9874 15.251 11.0869 15.0504 11.1521 14.8941C11.2757 14.5976 11.378 14.2068 11.378 13.8915H9.378C9.378 13.8651 9.3802 13.8578 9.37778 13.8747C9.37577 13.8887 9.37171 13.9114 9.36469 13.9412C9.35016 14.0029 9.32899 14.0695 9.30604 14.1246C9.27918 14.189 9.26911 14.1916 9.29508 14.16C9.30961 14.1424 9.35531 14.0897 9.43919 14.0369C9.52788 13.9811 9.67592 13.9156 9.86945 13.9156V15.9156ZM11.378 13.8915V11.8433H9.378V13.8915H11.378ZM11.378 11.8433C11.378 11.5243 11.2703 11.131 11.1478 10.8397C11.0826 10.6846 10.984 10.4866 10.8397 10.3093C10.7245 10.1676 10.4018 9.81924 9.86945 9.81924V11.8192C9.66703 11.8192 9.51507 11.7486 9.42813 11.6926C9.3454 11.6393 9.30104 11.5871 9.28812 11.5712C9.26481 11.5425 9.27627 11.5485 9.30412 11.6148C9.32809 11.6718 9.35 11.7398 9.36493 11.8015C9.37216 11.8314 9.37626 11.8536 9.37821 11.8667C9.38065 11.8832 9.378 11.8733 9.378 11.8433H11.378ZM9.86945 9.81924C9.34547 9.81924 9.02287 10.154 8.89917 10.3044C8.75152 10.4839 8.652 10.6844 8.58683 10.8407C8.46321 11.1373 8.36089 11.528 8.36089 11.8433H10.3609C10.3609 11.8698 10.3587 11.8771 10.3611 11.8602C10.3631 11.8462 10.3672 11.8235 10.3742 11.7936C10.3887 11.732 10.4099 11.6653 10.4329 11.6103C10.4597 11.5458 10.4698 11.5432 10.4438 11.5748C10.4293 11.5925 10.3836 11.6451 10.2997 11.6979C10.211 11.7538 10.063 11.8192 9.86945 11.8192V9.81924ZM8.36089 11.8433V13.8915H10.3609V11.8433H8.36089Z" fill="black" mask="url(#path-1-outside-1)"/>
</g>
<defs>
<filter id="filter0_d" x="0.227417" y="0.626465" width="19.3032" height="20.3373" filterUnits="userSpaceOnUse" color-interpolation-filters="sRGB">
<feFlood flood-opacity="0" result="BackgroundImageFix"/>
<feColorMatrix in="SourceAlpha" type="matrix" values="0 0 0 0 0 0 0 0 0 0 0 0 0 0 0 0 0 0 127 0"/>
<feOffset dy="1"/>
<feGaussianBlur stdDeviation="1"/>
<feColorMatrix type="matrix" values="0 0 0 0 0 0 0 0 0 0 0 0 0 0 0 0 0 0 1 0"/>
<feBlend mode="normal" in2="BackgroundImageFix" result="effect1_dropShadow"/>
<feBlend mode="normal" in="SourceGraphic" in2="effect1_dropShadow" result="shape"/>
</filter>
</defs>
</svg>
