<svg width="182" height="201" viewBox="0 0 182 201" fill="none" xmlns="http://www.w3.org/2000/svg">
<path fill-rule="evenodd" clip-rule="evenodd" d="M181.18 135.753V64.5467C181.18 54.206 175.665 44.6522 166.71 39.4796L105.059 3.87777C96.1047 -1.29259 85.0734 -1.29259 76.121 3.87777L14.4702 39.4796C5.51567 44.6522 0 54.206 0 64.5467V135.753C0 146.093 5.51567 155.649 14.4702 160.82L76.121 196.422C85.0734 201.594 96.1047 201.594 105.059 196.422L166.71 160.82C175.665 155.649 181.18 146.093 181.18 135.753Z" fill="#B57AD2"/>
<path fill-rule="evenodd" clip-rule="evenodd" d="M77.1265 55.1089L80.8533 56.8625L82.5938 53.2737L78.8875 51.4385L77.1265 55.1089ZM88.2453 60.3698L84.5391 58.6162L86.1977 54.9458L89.9039 56.6994L88.2453 60.3698ZM91.9106 62.1235L95.6169 63.8771L97.3779 60.2067L93.6716 58.453L91.9106 62.1235ZM103.009 67.3844L99.3027 65.6308L101.064 61.9603L104.77 63.714L103.009 67.3844ZM106.674 69.138L110.401 70.8917L112.121 67.2213L108.435 65.4676L106.674 69.138ZM114.107 72.6453L117.793 74.399L119.554 70.7285L115.868 68.9749L114.107 72.6453Z" fill="#5A5A60"/>
<path fill-rule="evenodd" clip-rule="evenodd" d="M112.817 125.642L114.865 129.211L118.448 127.171L116.401 123.603L112.817 125.642ZM107.698 133.146L105.65 129.557L109.234 127.518L111.282 131.087L107.698 133.146ZM98.4837 133.493L100.531 137.061L104.135 135.022L102.088 131.454L98.4837 133.493ZM93.344 140.956L91.2964 137.387L94.8798 135.348L96.9274 138.937L93.344 140.956ZM84.15 141.364L86.1977 145.034L89.8016 142.893L87.7539 139.325L84.15 141.364ZM76.9423 145.279L78.9899 148.868L82.5733 146.808L80.5257 143.24L76.9423 145.279Z" fill="#5A5A60"/>
<path d="M90.3173 105.844L92.0778 102.162L95.7754 103.915L94.0149 107.597L90.3173 105.844Z" fill="#5A5A60"/>
<path d="M60.7417 91.813L62.5022 88.1309L66.1997 89.884L64.4393 93.5661L60.7417 91.813Z" fill="#5A5A60"/>
<path d="M68.1435 95.3201L69.904 91.6379L73.6015 93.3911L71.8411 97.0732L68.1435 95.3201Z" fill="#5A5A60"/>
<path d="M97.7194 109.351L99.4798 105.669L103.177 107.422L101.417 111.104L97.7194 109.351Z" fill="#5A5A60"/>
<path d="M97.9945 90.1576L101.583 88.1917L103.557 91.7647L99.9687 93.7307L97.9945 90.1576Z" fill="#5A5A60"/>
<path d="M62.1136 109.798L65.7016 107.832L67.6758 111.405L64.0878 113.371L62.1136 109.798Z" fill="#5A5A60"/>
<path d="M79.338 100.377L80.9966 96.9109L77.2903 95.1572L75.5294 98.8276L79.0923 100.52L76.4713 101.947L78.437 105.516L82.0409 103.558L80.0547 99.9899L79.338 100.377Z" fill="#5A5A60"/>
<path d="M90.8356 94.0895L94.4236 92.1235L96.3978 95.6966L92.8098 97.6625L90.8356 94.0895Z" fill="#5A5A60"/>
<path d="M69.2789 105.892L72.8677 103.927L74.8406 107.501L71.2518 109.466L69.2789 105.892Z" fill="#5A5A60"/>
<path d="M87.242 96.0544L83.6586 98.012L84.3753 99.317L82.9214 102.335L86.6277 104.089L88.3887 100.418L88.0611 100.255L89.2078 99.6229L87.242 96.0544Z" fill="#5A5A60"/>
<path fill-rule="evenodd" clip-rule="evenodd" d="M77.565 59.0649L77.7485 60.5739C77.9932 62.4965 77.9932 64.4424 77.7485 66.365L77.565 67.8739L70.9184 69.0974C70.619 70.04 70.237 70.9543 69.7767 71.8298L73.5689 77.4374L72.6515 78.6201C71.457 80.1347 70.0881 81.5037 68.5738 82.6983L67.3913 83.6159L61.8252 79.7824C60.9498 80.2427 60.0357 80.6248 59.0932 80.9243L57.8699 87.5718L56.3612 87.7554C54.4388 88 52.4932 88 50.5709 87.7554L49.0621 87.5718L47.8388 80.9243C46.8964 80.6248 45.9822 80.2427 45.1068 79.7824L39.5 83.5752L38.3175 82.6576C36.8031 81.4629 35.4343 80.0939 34.2398 78.5793L33.3223 77.3966L37.1553 71.8298C36.6951 70.9543 36.313 70.04 36.0136 69.0974L29.367 67.8739L29.1835 66.365C28.9388 64.4424 28.9388 62.4965 29.1835 60.5739L29.367 59.0649L36.0136 57.8415C36.313 56.8989 36.6951 55.9846 37.1553 55.109L33.3631 49.5015L34.2806 48.3188C35.4751 46.8042 36.8439 45.4352 38.3583 44.2405L39.5408 43.3229L45.1068 47.1565C45.9822 46.6961 46.8964 46.3141 47.8388 46.0146L49.0621 39.367L50.5709 39.1835C52.4932 38.9388 54.4388 38.9388 56.3612 39.1835L57.8699 39.367L59.0932 46.0146C60.0357 46.3141 60.9498 46.6961 61.8252 47.1565L67.432 43.3637L68.6146 44.2813C70.1289 45.476 71.4977 46.845 72.6922 48.3596L73.6097 49.5422L69.7767 55.109C70.237 55.9846 70.619 56.8989 70.9184 57.8415L77.565 59.0649ZM53.466 69.5868C56.8441 69.5868 59.5825 66.848 59.5825 63.4694C59.5825 60.0909 56.8441 57.3521 53.466 57.3521C50.0879 57.3521 47.3495 60.0909 47.3495 63.4694C47.3495 66.848 50.0879 69.5868 53.466 69.5868Z" fill="white"/>
<path fill-rule="evenodd" clip-rule="evenodd" d="M150.963 95.769L151.147 97.278C151.391 99.2006 151.391 101.146 151.147 103.069L150.963 104.578L144.317 105.802C144.017 106.744 143.635 107.658 143.175 108.534L146.967 114.142L146.05 115.324C144.855 116.839 143.486 118.208 141.972 119.402L140.789 120.32L135.223 116.486C134.348 116.947 133.434 117.329 132.491 117.628L131.268 124.276L129.759 124.459C127.837 124.704 125.891 124.704 123.969 124.459L122.46 124.276L121.237 117.628C120.294 117.329 119.38 116.947 118.505 116.486L112.898 120.279L111.716 119.362C110.201 118.167 108.832 116.798 107.638 115.283L106.72 114.101L110.553 108.534C110.093 107.658 109.711 106.744 109.412 105.802L102.765 104.578L102.582 103.069C102.337 101.146 102.337 99.2006 102.582 97.278L102.765 95.769L109.412 94.5456C109.711 93.603 110.093 92.6887 110.553 91.8131L106.761 86.2056L107.679 85.0229C108.873 83.5083 110.242 82.1393 111.756 80.9446L112.939 80.027L118.505 83.8606C119.38 83.4002 120.294 83.0182 121.237 82.7187L122.46 76.0711L123.969 75.8876C125.891 75.6429 127.837 75.6429 129.759 75.8876L131.268 76.0711L132.491 82.7187C133.434 83.0182 134.348 83.4002 135.223 83.8606L140.83 80.0678L142.013 80.9854C143.527 82.1801 144.896 83.5491 146.09 85.0637L147.008 86.2464L143.175 91.8131C143.635 92.6887 144.017 93.603 144.317 94.5456L150.963 95.769ZM126.864 106.291C130.242 106.291 132.981 103.552 132.981 100.174C132.981 96.795 130.242 94.0562 126.864 94.0562C123.486 94.0562 120.748 96.795 120.748 100.174C120.748 103.552 123.486 106.291 126.864 106.291Z" fill="white"/>
<path fill-rule="evenodd" clip-rule="evenodd" d="M77.565 132.473L77.7485 133.982C77.9932 135.905 77.9932 137.851 77.7485 139.773L77.565 141.282L70.9184 142.506C70.619 143.448 70.237 144.362 69.7767 145.238L73.5689 150.846L72.6515 152.028C71.457 153.543 70.0881 154.912 68.5738 156.107L67.3913 157.024L61.8252 153.191C60.9498 153.651 60.0357 154.033 59.0932 154.333L57.8699 160.98L56.3612 161.164C54.4388 161.408 52.4932 161.408 50.5709 161.164L49.0621 160.98L47.8388 154.333C46.8964 154.033 45.9822 153.651 45.1068 153.191L39.5 156.983L38.3175 156.066C36.8031 154.871 35.4343 153.502 34.2398 151.988L33.3223 150.805L37.1553 145.238C36.6951 144.362 36.313 143.448 36.0136 142.506L29.367 141.282L29.1835 139.773C28.9388 137.851 28.9388 135.905 29.1835 133.982L29.367 132.473L36.0136 131.25C36.313 130.307 36.6951 129.393 37.1553 128.517L33.3631 122.91L34.2806 121.727C35.4751 120.212 36.8439 118.843 38.3583 117.649L39.5408 116.731L45.1068 120.565C45.9822 120.104 46.8964 119.722 47.8388 119.423L49.0621 112.775L50.5709 112.592C52.4932 112.347 54.4388 112.347 56.3612 112.592L57.8699 112.775L59.0932 119.423C60.0357 119.722 60.9498 120.104 61.8252 120.565L67.432 116.772L68.6146 117.69C70.1289 118.884 71.4977 120.253 72.6922 121.768L73.6097 122.95L69.7767 128.517C70.237 129.393 70.619 130.307 70.9184 131.25L77.565 132.473ZM53.466 142.995C56.8441 142.995 59.5825 140.256 59.5825 136.878C59.5825 133.499 56.8441 130.76 53.466 130.76C50.0879 130.76 47.3495 133.499 47.3495 136.878C47.3495 140.256 50.0879 142.995 53.466 142.995Z" fill="white"/>
</svg>
